<?xml version="1.0" encoding="utf-8"?>
<!-- Generator: Adobe Illustrator 26.5.0, SVG Export Plug-In . SVG Version: 6.00 Build 0)  -->
<svg version="1.1" id="GreenTrace" xmlns="http://www.w3.org/2000/svg" xmlns:xlink="http://www.w3.org/1999/xlink" x="0px" y="0px"
	 viewBox="0 0 400 100" style="enable-background:new 0 0 400 100;" xml:space="preserve">
<style type="text/css">
	.st0{fill:#006837;}
	.st1{fill:#55BD68;}
	.st2{fill:#004737;}
	.st3{font-family:'Ranille-Normal-Regular';}
	.st4{font-size:49.4739px;}
</style>
<path class="st0" d="M350.87,64.6c0,0,2.84,2.92,4.38,3.62c1.54,0.7-0.25-5.22,10.9-2.47c6.84,1.68,6.02,1.49,9.08,2.27
	c1.97,0.5,8.81,0.67,10.76,0.25l2.38-0.31c0,0-1.39,10.26-13.15,15.36c-19.71,8.55-27.97-7.66-23.94-11.33
	c-4.72-3.53-6.91-4.72-6.91-4.72L350.87,64.6z"/>
<path class="st1" d="M351.23,68.49c0,0,10.96,15.93,35.59,2.58C386.82,71.07,366.33,83,351.23,68.49z"/>
<path class="st1" d="M361.7,85.52c0,0,4.33,0.79,9.76-0.67c6.6-1.78,14.69-6.66,17.03-17.27c0.69-5.29-1.55-8.72-4-11.38
	c-0.12-0.36-0.16,11.65-6.54,20.01C369.72,86.99,361.7,85.52,361.7,85.52z"/>
<path class="st0" d="M386.04,62.26c0,0,2.06,12.56-4.26,17.09C381.77,79.35,385.63,75.06,386.04,62.26z"/>
<g id="Layer_1_00000127014166561858823180000009743785224505153671_">
	<text transform="matrix(1.063 0 0 1 50.4712 68.0527)"><tspan x="0" y="0" class="st2 st3 st4">Green</tspan><tspan x="149.21" y="0" class="st0 st3 st4">Trace </tspan></text>
</g>
<g id="Layer_2">
	<path class="st0" d="M34.43,75.14c0,0,4.87,0.25,5.62-5.2s-5.45-4.23-5.97-5.56s-1.78-7.06-6.17-6.09
		C21.6,59.25,26.37,74.02,34.43,75.14z"/>
	
		<ellipse transform="matrix(0.5238 -0.8519 0.8519 0.5238 -38.7522 71.3358)" class="st0" cx="44.42" cy="70.33" rx="2.44" ry="3.14"/>
	
		<ellipse transform="matrix(0.6649 -0.7469 0.7469 0.6649 -41.5967 56.5526)" class="st0" cx="42.23" cy="74.64" rx="1.78" ry="2.32"/>
	
		<ellipse transform="matrix(0.7632 -0.6461 0.6461 0.7632 -40.4396 43.3527)" class="st0" cx="38.94" cy="76.86" rx="1.37" ry="1.87"/>
	
		<ellipse transform="matrix(0.9642 -0.265 0.265 0.9642 -19.3477 12.2638)" class="st0" cx="35.77" cy="77.82" rx="1.19" ry="1.54"/>
	
		<ellipse transform="matrix(0.9803 -0.1973 0.1973 0.9803 -14.5926 8.0512)" class="st0" cx="33.11" cy="77.26" rx="0.79" ry="1.04"/>
	<path class="st1" d="M238.86,16.6c0,0,4.27-2.34,2.04-7.38c-2.23-5.03-6.86-0.73-8-1.59s-5.22-5.07-8.45-1.94
		C219.59,9.82,231.4,19.88,238.86,16.6z"/>
	
		<ellipse transform="matrix(1 -1.812543e-03 1.812543e-03 1 -0.0127 0.4438)" class="st1" cx="244.83" cy="7.25" rx="3.14" ry="2.44"/>
	
		<ellipse transform="matrix(0.1734 -0.9848 0.9848 0.1734 190.8132 251.4886)" class="st1" cx="245.23" cy="12.07" rx="1.78" ry="2.32"/>
	
		<ellipse transform="matrix(0.3101 -0.9507 0.9507 0.3101 153.1445 242.4119)" class="st1" cx="243.59" cy="15.69" rx="1.37" ry="1.87"/>
	
		<ellipse transform="matrix(0.6813 -0.732 0.732 0.6813 63.6394 182.5124)" class="st1" cx="241.4" cy="18.18" rx="1.19" ry="1.54"/>
	
		<ellipse transform="matrix(0.7306 -0.6829 0.6829 0.7306 51.3153 168.2443)" class="st1" cx="238.85" cy="19.1" rx="0.79" ry="1.04"/>
	<path class="st0" d="M131.36,87.35c0,0,2.42-4.23-2.1-7.36c-4.52-3.14-6.24,2.95-7.65,2.81s-7.1-1.61-8.22,2.75
		C111.38,91.6,126.71,94.03,131.36,87.35z"/>
	
		<ellipse transform="matrix(0.8524 -0.5229 0.5229 0.8524 -20.4525 80.0643)" class="st0" cx="131.58" cy="76.26" rx="3.14" ry="2.44"/>
	
		<ellipse transform="matrix(0.9308 -0.3655 0.3655 0.9308 -19.9986 54.6819)" class="st0" cx="134.43" cy="80.16" rx="2.32" ry="1.78"/>
	
		<ellipse transform="matrix(0.9729 -0.2311 0.2311 0.9729 -15.7842 33.4574)" class="st0" cx="134.92" cy="84.11" rx="1.87" ry="1.37"/>
	
		<ellipse transform="matrix(0.1997 -0.9799 0.9799 0.1997 21.9209 201.5721)" class="st0" cx="134.35" cy="87.37" rx="1.19" ry="1.54"/>
	
		<ellipse transform="matrix(0.2674 -0.9636 0.9636 0.2674 10.9594 193.3821)" class="st0" cx="132.65" cy="89.48" rx="0.79" ry="1.04"/>
	<path class="st0" d="M79.56,85.98c0,0,1.31,4.69-3.85,6.62c-5.16,1.93-5.32-4.39-6.73-4.6s-7.28-0.19-7.29-4.69
		C61.24,76.94,76.7,78.36,79.56,85.98z"/>
	
		<ellipse transform="matrix(0.7164 -0.6976 0.6976 0.7164 -45.6745 81.1978)" class="st0" cx="77.05" cy="96.79" rx="2.44" ry="3.14"/>
	
		<ellipse transform="matrix(0.5831 -0.8124 0.8124 0.5831 -42.4486 104.678)" class="st0" cx="80.77" cy="93.7" rx="1.78" ry="2.32"/>
	
		<ellipse transform="matrix(0.4632 -0.8862 0.8862 0.4632 -35.6286 121.1777)" class="st0" cx="82.22" cy="90" rx="1.37" ry="1.87"/>
	
		<ellipse transform="matrix(0.0474 -0.9989 0.9989 0.0474 -8.0406 164.9663)" class="st0" cx="82.47" cy="86.7" rx="1.19" ry="1.54"/>
	
		<ellipse transform="matrix(0.9998 -0.0223 0.0223 0.9998 -1.8549 1.8317)" class="st0" cx="81.34" cy="84.23" rx="1.04" ry="0.79"/>
	<path class="st1" d="M183.7,15.98c0,0,4.83,0.6,4.63,6.1c-0.21,5.5-6.1,3.22-6.84,4.44c-0.74,1.22-2.98,6.65-7.13,4.93
		C168.31,29.4,175.56,15.68,183.7,15.98z"/>
	<ellipse transform="matrix(0.9298 -0.3681 0.3681 0.9298 5.2654 72.51)" class="st1" cx="192.7" cy="22.45" rx="3.14" ry="2.44"/>
	
		<ellipse transform="matrix(0.8509 -0.5253 0.5253 0.8509 19.1523 103.1414)" class="st1" cx="191.29" cy="17.83" rx="2.32" ry="1.78"/>
	
		<ellipse transform="matrix(0.7687 -0.6396 0.6396 0.7687 33.9501 124.0142)" class="st1" cx="188.43" cy="15.07" rx="1.87" ry="1.37"/>
	
		<ellipse transform="matrix(0.4282 -0.9037 0.9037 0.4282 93.7876 175.3685)" class="st1" cx="185.48" cy="13.57" rx="1.54" ry="1.19"/>
	
		<ellipse transform="matrix(0.3643 -0.9313 0.9313 0.3643 103.4644 178.8885)" class="st1" cx="182.77" cy="13.66" rx="1.04" ry="0.79"/>
	<path class="st1" d="M296.09,24.13c0,0,0.7,4.82-4.65,6.08c-5.36,1.26-4.72-5.03-6.09-5.42c-1.37-0.39-7.2-1.11-6.64-5.57
		C279.07,12.85,294.22,16.21,296.09,24.13z"/>
	
		<ellipse transform="matrix(0.799 -0.6014 0.6014 0.799 37.9808 182.6877)" class="st1" cx="292.24" cy="34.54" rx="2.44" ry="3.14"/>
	
		<ellipse transform="matrix(0.6813 -0.732 0.732 0.6813 71.0661 227.1054)" class="st1" cx="296.32" cy="31.95" rx="1.78" ry="2.32"/>
	
		<ellipse transform="matrix(0.5716 -0.8205 0.8205 0.5716 104.397 256.8862)" class="st1" cx="298.23" cy="28.46" rx="1.37" ry="1.87"/>
	
		<ellipse transform="matrix(0.1734 -0.9848 0.9848 0.1734 222.2285 315.2059)" class="st1" cx="298.89" cy="25.21" rx="1.19" ry="1.54"/>
	
		<ellipse transform="matrix(0.1044 -0.9945 0.9945 0.1044 244.4568 316.7163)" class="st1" cx="298.09" cy="22.62" rx="0.79" ry="1.04"/>
</g>
</svg>
